<?xml version="1.0" encoding="iso-8859-1"?>
<!-- Generator: Adobe Illustrator 19.0.0, SVG Export Plug-In . SVG Version: 6.00 Build 0)  -->
<svg version="1.1" id="Layer_1" xmlns="http://www.w3.org/2000/svg" xmlns:xlink="http://www.w3.org/1999/xlink" x="0px" y="0px"
	 viewBox="0 0 202.448 202.448" style="enable-background:new 0 0 202.448 202.448;" xml:space="preserve">
<g>
	<g>
		<g>
			<path d="M81.741,66.068h38.966c2.152,0,3.897-1.743,3.897-3.897s-1.745-3.897-3.897-3.897H81.741
				c-2.152,0-3.897,1.743-3.897,3.897S79.589,66.068,81.741,66.068z"/>
			<path d="M120.707,77.758H81.741c-2.152,0-3.897,1.743-3.897,3.897c0,2.154,1.745,3.897,3.897,3.897h38.966
				c2.152,0,3.897-1.743,3.897-3.897C124.604,79.501,122.858,77.758,120.707,77.758z"/>
			<path d="M120.707,97.241H81.741c-2.152,0-3.897,1.743-3.897,3.897s1.745,3.897,3.897,3.897h38.966
				c2.152,0,3.897-1.743,3.897-3.897S122.858,97.241,120.707,97.241z"/>
			<path d="M120.707,116.723H81.741c-2.152,0-3.897,1.743-3.897,3.897s1.745,3.897,3.897,3.897h38.966
				c2.152,0,3.897-1.743,3.897-3.897S122.858,116.723,120.707,116.723z"/>
			<path d="M120.707,136.206H81.741c-2.152,0-3.897,1.743-3.897,3.897c0,2.154,1.745,3.897,3.897,3.897h38.966
				c2.152,0,3.897-1.743,3.897-3.897C124.603,137.949,122.858,136.206,120.707,136.206z"/>
			<path d="M81.741,46.586h38.966c1.351,0,2.605-0.7,3.314-1.849s0.774-2.584,0.171-3.79L104.709,1.981
				c-1.321-2.641-5.651-2.641-6.971,0L78.255,40.946c-0.603,1.206-0.538,2.641,0.171,3.79C79.136,45.886,80.39,46.586,81.741,46.586
				z M101.224,12.437l13.177,26.355H88.046L101.224,12.437z"/>
			<path d="M120.707,155.689H81.741c-1.351,0-2.605,0.7-3.314,1.849c-0.71,1.149-0.774,2.584-0.171,3.79l19.483,38.966
				c0.66,1.32,2.009,2.154,3.485,2.154s2.825-0.833,3.485-2.154l19.483-38.966c0.603-1.206,0.538-2.641-0.171-3.79
				S122.057,155.689,120.707,155.689z M101.224,189.837l-13.177-26.355h26.355L101.224,189.837z"/>
		</g>
	</g>
</g>
<g>
</g>
<g>
</g>
<g>
</g>
<g>
</g>
<g>
</g>
<g>
</g>
<g>
</g>
<g>
</g>
<g>
</g>
<g>
</g>
<g>
</g>
<g>
</g>
<g>
</g>
<g>
</g>
<g>
</g>
</svg>
